<?xml version="1.0" encoding="utf-8"?>
<!-- Generator: Adobe Illustrator 19.0.0, SVG Export Plug-In . SVG Version: 6.00 Build 0)  -->
<svg version="1.1" id="Layer_1" xmlns="http://www.w3.org/2000/svg" xmlns:xlink="http://www.w3.org/1999/xlink" x="0px" y="0px"
	 viewBox="-464 266 30 29" style="enable-background:new -464 266 30 29;" xml:space="preserve">
<style type="text/css">
	.st0{fill:#5F8DCE;}
</style>
<path class="st0" d="M-451.2,283.1c0-0.9-0.3-2.3-0.8-2.9v-0.1c0.1-1,0.4-1.7,1-2.3c0.6-0.5,1.4-0.9,2.4-1c0.2,0,0.3-0.2,0.3-0.4
	c0-0.2-0.2-0.3-0.4-0.3c-1.2,0.1-2.2,0.5-2.8,1.2c-0.6,0.6-1,1.3-1.1,2.3c-0.5-0.4-1.2-0.6-1.9-0.6c-0.6,0-1.1,0.2-1.5,0.5
	c-0.2-0.9-0.5-1.6-1.1-2.2c-0.7-0.7-1.6-1.1-2.8-1.2c-0.2,0-0.3,0.1-0.4,0.3c0,0.2,0.1,0.3,0.3,0.4c1.1,0.1,1.9,0.4,2.4,1
	c0.5,0.5,0.9,1.3,1,2.2c-0.7,0.7-1.1,2.2-1.2,3h6.6V283.1z M-444.8,266.8c1.7-0.1,3.3,0.8,4.2,2.4c1,1.8,0.6,4-0.8,5.4l5.6,8.4
	c0.6,1.8-1.4,3.1-2.8,1.6l-4.7-8.9c-2,0.6-4.2-0.3-5.3-2.2c-0.9-1.7-0.7-3.7,0.5-5l1.8,3.4l3.3-1.8L-444.8,266.8z M-450.3,283.3
	h-0.7h-7h-0.6c0,0.4-0.1,0.9-0.1,1.4l-1.9-0.5l-1-3.4c-0.1-0.2-0.3-0.3-0.4-0.2c-0.2,0.1-0.3,0.2-0.2,0.4l1.1,3.6
	c0,0.1,0.1,0.2,0.3,0.2l2.2,0.6c0,1,0.1,2,0.4,3l-1.8,0.8c0,0,0,0-0.1,0l-0.2,0.3l-0.6,4.3l0,0c0,0.1,0,0.2,0.1,0.3
	c0.1,0.1,0.2,0.1,0.3,0.2c0.1,0,0.2,0,0.3-0.1c0.1-0.1,0.2-0.2,0.2-0.3l0,0l0.6-4.1l1.4-0.7c0.6,1.4,1.7,2.4,3.5,2.4
	c1.7,0,2.9-1,3.6-2.5l1.6,0.7l0.6,4.1l0,0c0,0.1,0.1,0.2,0.2,0.3s0.2,0.1,0.3,0.1c0.1,0,0.2-0.1,0.3-0.2s0.1-0.2,0.1-0.3l0,0
	l-0.6-4.3l-0.2-0.3c0,0,0,0-0.1,0l-1.8-0.8c0.3-0.9,0.5-1.9,0.5-2.9l2.2-0.6c0.1,0,0.2-0.1,0.3-0.2l1.1-3.6c0.1-0.2,0-0.4-0.2-0.4
	c-0.2-0.1-0.4,0-0.4,0.2l-1,3.4l-1.9,0.5C-450.1,284.2-450.2,283.7-450.3,283.3L-450.3,283.3z"/>
</svg>
