<?xml version="1.0" encoding="utf-8"?>
<!-- Generator: Adobe Illustrator 19.0.0, SVG Export Plug-In . SVG Version: 6.00 Build 0)  -->
<svg version="1.1" id="Layer_1" xmlns="http://www.w3.org/2000/svg" xmlns:xlink="http://www.w3.org/1999/xlink" x="0px" y="0px"
	 viewBox="0 0 30 30" style="enable-background:new 0 0 30 30;" xml:space="preserve">
<style type="text/css">
	.st0{fill:#5F8DCE;}
</style>
<path class="st0" d="M20.1,17.7c0.2-0.5,0.1-1-0.2-1.4L15,10.7c-0.2-0.3-0.6-0.4-1-0.4c-0.4,0-0.7,0.2-1,0.4l-4.9,5.6
	c-0.3,0.4-0.4,0.9-0.2,1.4c0.2,0.5,0.7,0.8,1.2,0.8h1.2v8.8c0,0.7,0.6,1.3,1.3,1.3h4.9c0.7,0,1.3-0.6,1.3-1.3v-8.8h1.2
	C19.4,18.4,19.9,18.1,20.1,17.7z M16.5,17.1v10.1h-4.9V17.1H9.1l4.9-5.6l4.9,5.6H16.5z M21.2,4.3c-0.8,0-1.6,0.1-2.4,0.3
	c-1.5-2-3.9-3.1-6.4-3.1c-4.2,0-7.7,3.2-8.1,7.3C3.2,9.2,2.2,10,1.5,10.9c-1,1.2-1.5,2.7-1.5,4.3C0,18.9,3.1,22,6.8,22h2.8v-2.6H6.8
	c-2.3,0-4.2-1.9-4.2-4.2c0-2,1.3-3.7,3.2-4.1c0.6-0.1,1-0.7,1-1.3c0,0,0-0.1,0-0.1c0-3,2.5-5.5,5.5-5.5c2,0,3.8,1.1,4.8,2.7
	c0.3,0.6,1,0.8,1.6,0.5c0.8-0.3,1.6-0.5,2.4-0.5c3.4,0,6.2,2.8,6.2,6.2c0,3.4-2.8,6.2-6.2,6.2h-2.8V22h2.8c4.9,0,8.8-4,8.8-8.8
	C30,8.3,26,4.3,21.2,4.3z"/>
</svg>
