<?xml version="1.0" encoding="utf-8"?>
<!-- Generator: Adobe Illustrator 19.0.0, SVG Export Plug-In . SVG Version: 6.00 Build 0)  -->
<svg version="1.1" id="Layer_1" xmlns="http://www.w3.org/2000/svg" xmlns:xlink="http://www.w3.org/1999/xlink" x="0px" y="0px"
	 viewBox="-464 266.7 30 29.3" style="enable-background:new -464 266.7 30 29.3;" xml:space="preserve">
<style type="text/css">
	.st0{fill:#5F8DCE;}
</style>
<g>
	<path class="st0" d="M-436,274.2c-1.3-2.3-3.2-4.1-5.5-5.5c-2.3-1.3-4.8-2-7.5-2s-5.2,0.7-7.5,2c-2.3,1.4-4.1,3.2-5.5,5.5
		c-1.3,2.3-2,4.8-2,7.5c0,3.3,1,6.2,2.9,8.8c1.9,2.6,4.4,4.4,7.4,5.4c0.4,0.1,0.6,0,0.8-0.1c0.2-0.2,0.3-0.4,0.3-0.6
		c0,0,0-0.4,0-1.1c0-0.7,0-1.2,0-1.7l-0.4,0.1c-0.3,0.1-0.6,0.1-1.1,0.1c-0.4,0-0.9-0.1-1.4-0.1c-0.5-0.1-0.9-0.3-1.3-0.6
		c-0.4-0.3-0.7-0.7-0.9-1.2l-0.3-0.5c-0.1-0.3-0.3-0.6-0.6-1c-0.3-0.4-0.6-0.6-0.8-0.7l-0.1-0.1c-0.1-0.1-0.2-0.1-0.3-0.2
		c-0.1-0.2-0.2-0.3-0.2-0.3c0-0.1,0-0.2,0.1-0.2c0.1-0.1,0.3-0.1,0.6-0.1h0.3c0.3,0.1,0.6,0.2,1,0.5c0.4,0.3,0.7,0.6,0.9,1
		c0.3,0.5,0.7,0.9,1.1,1.2c0.5,0.3,0.9,0.4,1.3,0.4c0.4,0,0.8,0,1.1-0.1c0.3-0.1,0.6-0.2,0.9-0.3c0.1-0.9,0.4-1.5,1-2
		c-0.7-0.1-1.4-0.2-2-0.4c-0.6-0.2-1.2-0.4-1.8-0.8s-1.2-0.8-1.6-1.3s-0.8-1.2-1-2.1c-0.3-0.8-0.4-1.8-0.4-2.9c0-1.6,0.5-2.9,1.5-4
		c-0.5-1.1-0.5-2.4,0.1-3.9c0.4-0.1,0.9,0,1.7,0.3c0.7,0.3,1.3,0.5,1.6,0.8c0.3,0.2,0.6,0.4,0.8,0.5c1.2-0.3,2.5-0.5,3.8-0.5
		s2.5,0.2,3.8,0.5l0.7-0.5c0.5-0.3,1.1-0.6,1.8-0.9c0.7-0.3,1.2-0.3,1.6-0.2c0.6,1.5,0.6,2.8,0.2,4c1,1.1,1.5,2.4,1.5,4
		c0,1.1-0.1,2.1-0.4,2.9c-0.3,0.9-0.6,1.5-1,2.1c-0.4,0.5-1,0.9-1.6,1.3s-1.2,0.6-1.8,0.8c-0.6,0.2-1.3,0.3-2,0.4
		c0.7,0.6,1,1.5,1,2.8v4.1c0,0.2,0.1,0.4,0.2,0.6c0.2,0.2,0.4,0.2,0.8,0.1c3-1,5.5-2.8,7.4-5.4c1.8-2.7,2.8-5.6,2.8-8.9
		C-434,279-434.7,276.5-436,274.2L-436,274.2z"/>
</g>
</svg>
