<?xml version="1.0" encoding="utf-8"?>
<!-- Generator: Adobe Illustrator 19.0.0, SVG Export Plug-In . SVG Version: 6.00 Build 0)  -->
<svg version="1.1" id="Layer_1" xmlns="http://www.w3.org/2000/svg" xmlns:xlink="http://www.w3.org/1999/xlink" x="0px" y="0px"
	 viewBox="-464 266 30 29" style="enable-background:new -464 266 30 29;" xml:space="preserve">
<style type="text/css">
	.st0{fill:#5F8DCE;}
</style>
<path id="XMLID_1_" class="st0" d="M-434.4,280.2c0.5-0.6,0.5-1.5-0.1-2l-13.4-11.8c-0.6-0.5-1.6-0.5-2.2,0l-13.4,12.3
	c-0.6,0.5-0.6,1.5-0.1,2l0.3,0.4c0.6,0.6,1.5,0.7,2,0.2l1-0.9v13.2c0,0.8,0.7,1.5,1.5,1.5h5.2c0.8,0,1.5-0.7,1.5-1.5v-9.2h6.7v9.2
	c0,0.8,0.6,1.5,1.4,1.5h5.6c0.8,0,1.5-0.7,1.5-1.5v-13c0,0,0.3,0.2,0.6,0.5c0.3,0.3,1.1,0.1,1.6-0.5L-434.4,280.2z"/>
</svg>
