<?xml version="1.0" encoding="utf-8"?>
<!-- Generator: Adobe Illustrator 19.0.0, SVG Export Plug-In . SVG Version: 6.00 Build 0)  -->
<svg version="1.1" id="Layer_1" xmlns="http://www.w3.org/2000/svg" xmlns:xlink="http://www.w3.org/1999/xlink" x="0px" y="0px"
	 viewBox="-468 270.7 21.3 21.3" style="enable-background:new -468 270.7 21.3 21.3;" xml:space="preserve">
<style type="text/css">
	.st0{fill:#5F8DCE;}
	.st1{fill:#DEDDDD;}
</style>
<g>
	<circle class="st0" cx="-457.4" cy="281.4" r="10.6"/>
	<path id="XMLID_19_" class="st1" d="M-465.1,277.8c0-0.9,0.2-1.7,0.6-2.1c0.4-0.6,1-0.7,1.8-0.7c0.6,0,1,0.1,1.5,0.3v1.7
		c-0.6-0.3-1-0.4-1.6-0.4s-0.7,0.1-0.9,0.4s-0.3,0.6-0.3,1v7.3c0,0.5,0.1,0.8,0.3,1c0.2,0.3,0.5,0.5,1,0.5s1-0.1,1.5-0.3v1.7
		c-0.5,0.2-0.9,0.3-1.6,0.3c-1.6,0-2.4-1-2.4-2.9V277.8z"/>
	<path id="XMLID_22_" class="st1" d="M-459.9,275h2.5c0.6,0,1.2,0.3,1.6,0.7c0.4,0.6,0.6,1.3,0.6,2.2v7.2c0,0.9-0.2,1.7-0.5,2.2
		c-0.4,0.6-0.8,0.8-1.5,0.8h-2.7L-459.9,275L-459.9,275z M-456.6,278c0-1-0.4-1.5-1-1.5h-1.2v10h1.2c0.6,0,1-0.6,1-1.6V278z"/>
	<path id="XMLID_25_" class="st1" d="M-450.3,275h1.2v13.2h-1.3c-1.3-5.3-2.2-8.7-2.6-10.3c0,0.2,0,0.5,0.1,0.9
		c0.1,1.1,0.1,2.4,0.1,3.8v5.7h-1.2V275h1.3c1.2,4.6,1.8,7.4,2.1,8.5s0.4,1.8,0.5,1.8c0-0.1,0-0.7-0.1-1.8s-0.1-2-0.1-2.9V275z"/>
</g>
</svg>
