<?xml version="1.0" encoding="utf-8"?>
<!-- Generator: Adobe Illustrator 19.0.0, SVG Export Plug-In . SVG Version: 6.00 Build 0)  -->
<svg version="1.1" id="Layer_1" xmlns="http://www.w3.org/2000/svg" xmlns:xlink="http://www.w3.org/1999/xlink" x="0px" y="0px"
	 viewBox="0 0 20 19.6" style="enable-background:new 0 0 20 19.6;" xml:space="preserve">
<style type="text/css">
	.st0{fill:#FFFFFF;}
</style>
<g>
	<path id="XMLID_2_" class="st0" d="M19.6,19.2c-0.5,0.5-1.3,0.5-1.8,0L10,12.3l-7.8,6.9c-0.5,0.5-1.3,0.5-1.8,0
		c-0.5-0.5-0.5-1.3,0-1.8l8.7-7.7C9.3,9.4,9.7,9.3,10,9.3c0.3,0,0.7,0.1,0.9,0.4l8.7,7.7C20.1,17.9,20.1,18.7,19.6,19.2z"/>
	<path id="XMLID_1_" class="st0" d="M19.6,9.9c-0.5,0.5-1.3,0.5-1.8,0L10,3L2.2,9.9c-0.5,0.5-1.3,0.5-1.8,0c-0.5-0.5-0.5-1.3,0-1.8
		l8.7-7.7C9.3,0.1,9.7,0,10,0c0.3,0,0.7,0.1,0.9,0.4l8.7,7.7C20.1,8.6,20.1,9.4,19.6,9.9z"/>
</g>
</svg>
